<?xml version="1.0" encoding="utf-8"?>
<!-- Generator: Adobe Illustrator 23.0.2, SVG Export Plug-In . SVG Version: 6.00 Build 0)  -->
<svg version="1.1" id="Layer_1" xmlns="http://www.w3.org/2000/svg" xmlns:xlink="http://www.w3.org/1999/xlink" x="0px" y="0px"
	 viewBox="0 0 144 144" style="enable-background:new 0 0 144 144;" xml:space="preserve">
<style type="text/css">
	.st0{fill:#FFFFFF;}
</style>
<path class="st0" d="M12.68,15.02h12.33c4.21,0,7.61,1.59,9.89,3.84c2.3,2.3,3.66,4.4,3.66,8.58v0.98c0,2.55-0.8,4.95-2.39,7.2
	c-1.33,1.86-2.38,2.65-4.52,3.49l8.79,13.69h-9.28L20.3,36.09V52.8H12.7L12.68,15.02z M30.73,27.68c0-1.38-0.5-2.59-1.5-3.63
	c-0.99-0.96-2.86-1.5-4.69-1.5h-4.27v10.43h2.93V33h2.53C28.5,33,30.73,30.56,30.73,27.68z"/>
<path class="st0" d="M75,20.36c3.77,3.77,5.65,8.29,5.65,13.57c0,5.3-1.88,9.81-5.65,13.55c-3.75,3.72-8.27,5.58-13.55,5.58
	c-5.3-0.02-9.81-1.88-13.55-5.58c-3.75-3.75-5.63-8.27-5.63-13.55c0-5.27,1.88-9.79,5.63-13.57c3.77-3.77,8.28-5.65,13.55-5.65
	S71.23,16.6,75,20.36z M53.32,25.75c-2.25,2.28-3.38,4.99-3.38,8.13c0,3.17,1.13,5.88,3.38,8.13c2.23,2.23,4.95,3.35,8.13,3.35
	c3.14,0,5.84-1.12,8.11-3.35s3.4-4.95,3.4-8.13c0-3.16-1.13-5.87-3.4-8.13c-2.25-2.25-4.95-3.38-8.11-3.38
	C58.25,22.38,55.54,23.5,53.32,25.75z"/>
<path class="st0" d="M94.41,45.36c2.1,0,4.41-1.74,4.41-3.84c0-3.45-4.63-3.93-7.24-4.84c-4.61-1.57-8.67-5.35-8.67-10.5
	c0-6.37,5.17-11.51,11.54-11.51c5.81,0,10.62,4.31,11.4,9.91l-7.54,1.59c0-2.07-1.74-3.82-3.82-3.82c-2.11,0-3.85,1.74-3.85,3.84
	c0,3.4,4.31,4.31,6.93,5.09c4.77,1.38,8.97,5.01,8.97,10.27c0,6.37-5.72,11.52-12.08,11.52c-5.84,0-11.13-4.29-11.99-9.91l7.54-1.6
	c0,2.11,2.29,3.83,4.42,3.83L94.41,45.36z"/>
<path class="st0" d="M132.61,14.93v7.57h-15.19v7.62h11.39v7.57h-11.39v7.62h15.19v7.55h-22.78V14.93H132.61z"/>
<path class="st0" d="M27.75,78.74l15.44-21.19v32.29h-6.34V76.76l-9.1,12.56l-9.12-12.56v13.07h-6.34V57.54L27.75,78.74z"/>
<path class="st0" d="M60.31,57.64l14.4,32.19h-6.87l-2.13-4.79h-10.8l-2.13,4.79h-6.85L60.31,57.64z M63.2,79.44l-2.88-6.67
	l-2.92,6.67H63.2z"/>
<path class="st0" d="M77.45,58.29h10.29c3.51,0,6.35,1.33,8.26,3.21c1.92,1.92,3.05,3.67,3.05,7.16v0.82c0,2.13-0.67,4.13-2,6.01
	c-1.11,1.55-1.99,2.21-3.78,2.92l7.34,11.43h-7.75l-9.06-13.95v13.95h-6.34L77.45,58.29z M92.52,68.85c0-1.15-0.42-2.16-1.25-3.03
	c-0.82-0.8-2.38-1.25-3.91-1.25h-3.56v8.71h2.45v0.02h2.11C90.66,73.3,92.52,71.26,92.52,68.85z"/>
<path class="st0" d="M103.34,58.29h6.34v31.54h-6.34V58.29z"/>
<path class="st0" d="M132.61,58.21v6.32h-12.68v6.36h9.51v6.32h-9.51v6.36h12.68v6.3h-19.02V58.21H132.61z"/>
<g>
	<path class="st0" d="M16.66,95.76v12.86v1.37h1.37h11.89h1.37v-1.37V95.76h4.37v32.79h-4.37v-12.86v-1.37h-1.37H18.02h-1.37v1.37
		v12.86h-4.37V95.76H16.66z"/>
	<path class="st0" d="M66.91,128.55h-4.7l-2.43-5.4h-6.98h-6.96l-2.43,5.4h-4.7l14.09-33.1L66.91,128.55z M52.81,119.62h5.37
		c-0.9-2.06-1.79-4.27-2.68-6.64c-0.89-2.37-1.78-4.59-2.66-6.66c-0.9,2.07-1.8,4.29-2.7,6.66s-1.8,4.58-2.68,6.64H52.81z"/>
	<path class="st0" d="M74.39,95.76v27.08v1.39h1.37h12.9v4.32H70V95.76H74.39z"/>
	<path class="st0" d="M91.74,95.76h4.39v32.79h-4.39V95.76z"/>
	<path class="st0" d="M116.58,119.95l16.03-24.54v33.15h-4.39v-18.63l-11.64,17.88l-11.64-17.88v18.63h-4.39V95.4L116.58,119.95z"/>
</g>
</svg>
